<svg xmlns="http://www.w3.org/2000/svg" viewBox="0 0 187.74 40"><defs><style>.cls-1{fill:#fff;}</style></defs><g id="Layer_2" data-name="Layer 2"><g id="Layer_1-2" data-name="Layer 1"><path class="cls-1" d="M53.08,28.11a9.61,9.61,0,0,1-3.62-3.78,11.17,11.17,0,0,1-1.3-5.42,11.1,11.1,0,0,1,1.3-5.39,9.52,9.52,0,0,1,3.62-3.77,10.3,10.3,0,0,1,5.29-1.37A10.91,10.91,0,0,1,62.11,9a8.68,8.68,0,0,1,2.61,1.43v3.16a6.47,6.47,0,0,0-2.51-1.86,8.69,8.69,0,0,0-3.64-.76,7.57,7.57,0,0,0-3.9,1A7.17,7.17,0,0,0,52,14.81a8.68,8.68,0,0,0-1,4.1A8.67,8.67,0,0,0,52,23a7.22,7.22,0,0,0,2.7,2.86,7.39,7.39,0,0,0,3.9,1,8.92,8.92,0,0,0,3.57-.71,6.6,6.6,0,0,0,2.58-1.88v3.1A8.06,8.06,0,0,1,62,28.94a11.11,11.11,0,0,1-3.67.55A10.21,10.21,0,0,1,53.08,28.11Z"/><path class="cls-1" d="M69,28.5a7.13,7.13,0,0,1-2.66-2.71A7.55,7.55,0,0,1,65.43,22a7.68,7.68,0,0,1,.95-3.8A7.07,7.07,0,0,1,69,15.5a7.87,7.87,0,0,1,7.68,0,7.07,7.07,0,0,1,2.66,2.71,7.79,7.79,0,0,1,1,3.8,7.66,7.66,0,0,1-1,3.78,7.13,7.13,0,0,1-2.66,2.71,7.94,7.94,0,0,1-7.68,0Zm6.33-2a4.66,4.66,0,0,0,1.71-1.86,6.13,6.13,0,0,0,0-5.33,4.65,4.65,0,0,0-1.71-1.88,4.9,4.9,0,0,0-5,0,4.65,4.65,0,0,0-1.71,1.88,6.13,6.13,0,0,0,0,5.33,4.66,4.66,0,0,0,1.71,1.86,4.84,4.84,0,0,0,5,0Z"/><path class="cls-1" d="M82.18,15h2.65V19l-.29-.11a8,8,0,0,1,1.92-3,4.81,4.81,0,0,1,5.56-.7A3.77,3.77,0,0,1,93.5,16.8a6.65,6.65,0,0,1,.6,2.48l-.4-.23a8,8,0,0,1,2-3.18A4.51,4.51,0,0,1,99,14.59a4.57,4.57,0,0,1,2.45.61,3.77,3.77,0,0,1,1.49,1.73,6.41,6.41,0,0,1,.5,2.66V29h-2.62V20.19a3.82,3.82,0,0,0-.68-2.45,2.42,2.42,0,0,0-2-.85A3.14,3.14,0,0,0,95.71,18a7.34,7.34,0,0,0-1.58,2.83V29H91.48V20.22a3.93,3.93,0,0,0-.67-2.46,2.35,2.35,0,0,0-2-.87A3.19,3.19,0,0,0,86.39,18a7.29,7.29,0,0,0-1.56,2.8V29H82.18Z"/><path class="cls-1" d="M106.1,15h2.65V19l-.29-.11a8,8,0,0,1,1.92-3,4.39,4.39,0,0,1,3.23-1.28,4.46,4.46,0,0,1,2.34.58,3.81,3.81,0,0,1,1.47,1.63,6.29,6.29,0,0,1,.6,2.48l-.4-.23a8,8,0,0,1,2-3.18,5,5,0,0,1,5.73-.67,3.79,3.79,0,0,1,1.5,1.73,6.58,6.58,0,0,1,.49,2.66V29h-2.61V20.19a3.82,3.82,0,0,0-.69-2.45,2.41,2.41,0,0,0-2-.85A3.14,3.14,0,0,0,119.63,18a7.47,7.47,0,0,0-1.58,2.83V29h-2.64V20.22a4,4,0,0,0-.67-2.46,2.39,2.39,0,0,0-2-.87A3.19,3.19,0,0,0,110.31,18a7.29,7.29,0,0,0-1.56,2.8V29H106.1Z"/><path class="cls-1" d="M132.07,28.78A4.09,4.09,0,0,1,130.42,27a6.74,6.74,0,0,1-.56-2.89V15h2.64v8.56a4.32,4.32,0,0,0,.71,2.69,2.56,2.56,0,0,0,2.11.89,3.4,3.4,0,0,0,2.59-1.18,6.78,6.78,0,0,0,1.53-3V15h2.65V29h-2.65V25h.23a8.21,8.21,0,0,1-.93,2.1,5.06,5.06,0,0,1-1.65,1.67,4.53,4.53,0,0,1-2.48.67A5,5,0,0,1,132.07,28.78Z"/><path class="cls-1" d="M145,15h2.65v3.95h-.26a8.09,8.09,0,0,1,1.07-2,5.76,5.76,0,0,1,1.79-1.64,4.83,4.83,0,0,1,2.54-.65,4.57,4.57,0,0,1,2.45.61,3.8,3.8,0,0,1,1.49,1.72,6.22,6.22,0,0,1,.5,2.62V29h-2.64V20.22a5,5,0,0,0-.29-1.79,2.28,2.28,0,0,0-.89-1.14,2.83,2.83,0,0,0-1.58-.4,3.41,3.41,0,0,0-2.59,1.22,7.25,7.25,0,0,0-1.59,3v8H145Z"/><path class="cls-1" d="M160,11.46a1.58,1.58,0,0,1-.48-1.2A1.58,1.58,0,0,1,160,9.08a1.88,1.88,0,0,1,2.49,0,1.64,1.64,0,0,1,0,2.36,1.7,1.7,0,0,1-1.24.47A1.76,1.76,0,0,1,160,11.46Zm-.06,3.5h2.65V29h-2.65Z"/><path class="cls-1" d="M168.4,28.94A3.42,3.42,0,0,1,167,27.49a5.35,5.35,0,0,1-.52-2.52V17.09h-2.79v-1.2L169,11.46h0V15h4v2.13h-4v7.59a2.6,2.6,0,0,0,.59,1.9,2.18,2.18,0,0,0,1.6.58,3.32,3.32,0,0,0,1.23-.23,2.9,2.9,0,0,0,1-.6L173,28.67a3,3,0,0,1-1,.52,4.53,4.53,0,0,1-1.41.22A4.61,4.61,0,0,1,168.4,28.94Z"/><path class="cls-1" d="M179.21,27.7l.2,1.31-6.49-14h3l4.81,11.15-.63.08L185,15h2.7l-8.87,19.59H176Z"/><path class="cls-1" d="M20.79,0A20,20,0,1,0,40,20.79,20,20,0,0,0,20.79,0Zm8.45,29.29a1.22,1.22,0,0,1-1.21.6,1.12,1.12,0,0,1-.42-.15A24.19,24.19,0,0,0,19,26.85a23.87,23.87,0,0,0-9,.44A1.19,1.19,0,1,1,9.45,25a26.32,26.32,0,0,1,9.93-.48,26.08,26.08,0,0,1,9.41,3.2A1.19,1.19,0,0,1,29.24,29.31Zm2.62-5.25a1.54,1.54,0,0,1-2.1.63A29.75,29.75,0,0,0,9.34,21.82a1.46,1.46,0,0,1-.55,0,1.55,1.55,0,0,1-.12-3.05A32.77,32.77,0,0,1,31.24,22,1.55,1.55,0,0,1,31.86,24.06Zm2.92-5.91a1.92,1.92,0,0,1-2,1,2,2,0,0,1-.62-.2A35.91,35.91,0,0,0,8.57,15.64a1.91,1.91,0,0,1-.76-3.75A39.83,39.83,0,0,1,34,15.57,1.92,1.92,0,0,1,34.78,18.15Z"/></g></g></svg>